<?xml version="1.0" encoding="UTF-8" standalone="no"?>
<!-- Created with Inkscape (http://www.inkscape.org/) -->

<svg
   width="360"
   height="150"
   viewBox="0 0 95.249996 39.687501"
   version="1.1"
   id="svg5"
   sodipodi:docname="logo.svg"
   inkscape:version="1.1 (c68e22c387, 2021-05-23)"
   xmlns:inkscape="http://www.inkscape.org/namespaces/inkscape"
   xmlns:sodipodi="http://sodipodi.sourceforge.net/DTD/sodipodi-0.dtd"
   xmlns="http://www.w3.org/2000/svg"
   xmlns:svg="http://www.w3.org/2000/svg">
  <sodipodi:namedview
     id="namedview7"
     pagecolor="#ffffff"
     bordercolor="#666666"
     borderopacity="1.0"
     inkscape:pageshadow="2"
     inkscape:pageopacity="0.0"
     inkscape:pagecheckerboard="0"
     inkscape:document-units="mm"
     showgrid="false"
     units="px"
     inkscape:zoom="0.89571167"
     inkscape:cx="304.78558"
     inkscape:cy="-94.896609"
     inkscape:window-width="2560"
     inkscape:window-height="1346"
     inkscape:window-x="-11"
     inkscape:window-y="-11"
     inkscape:window-maximized="1"
     inkscape:current-layer="g127821" />
  <defs
     id="defs2">
    <clipPath
       clipPathUnits="userSpaceOnUse"
       id="clipPath25615">
      <text
         xml:space="preserve"
         style="font-style:normal;font-weight:normal;font-size:15.875px;line-height:1.25;font-family:sans-serif;display:inline;fill:#000000;fill-opacity:1;stroke:none;stroke-width:0.264583"
         x="6.1776009"
         y="15.668766"
         id="text25619"
         transform="rotate(20)"><tspan
           sodipodi:role="line"
           id="tspan25617"
           style="font-style:normal;font-variant:normal;font-weight:bold;font-stretch:normal;font-size:15.875px;font-family:'Tw Cen MT';-inkscape-font-specification:'Tw Cen MT Bold';stroke-width:0.264583"
           x="6.1776009"
           y="15.668766">N E W</tspan></text>
    </clipPath>
    <clipPath
       clipPathUnits="userSpaceOnUse"
       id="clipPath25621">
      <text
         xml:space="preserve"
         style="font-style:normal;font-weight:normal;font-size:15.875px;line-height:1.25;font-family:sans-serif;display:inline;fill:#000000;fill-opacity:1;stroke:none;stroke-width:0.264583"
         x="6.1776009"
         y="15.668766"
         id="text25625"
         transform="rotate(30)"><tspan
           sodipodi:role="line"
           id="tspan25623"
           style="font-style:normal;font-variant:normal;font-weight:bold;font-stretch:normal;font-size:15.875px;font-family:'Tw Cen MT';-inkscape-font-specification:'Tw Cen MT Bold';stroke-width:0.264583"
           x="6.1776009"
           y="15.668766">N E W</tspan></text>
    </clipPath>
    <clipPath
       clipPathUnits="userSpaceOnUse"
       id="clipPath25627">
      <text
         xml:space="preserve"
         style="font-style:normal;font-weight:normal;font-size:5.64444px;line-height:1.05;font-family:sans-serif;display:inline;fill:#000000;fill-opacity:1;stroke:none;stroke-width:0.264583"
         x="50.317795"
         y="9.437705"
         id="text25633"
         transform="rotate(-60)"><tspan
           sodipodi:role="line"
           id="tspan25629"
           style="font-style:normal;font-variant:normal;font-weight:normal;font-stretch:normal;font-size:5.64444px;font-family:'Segoe Script';-inkscape-font-specification:'Segoe Script';stroke-width:0.264583"
           x="50.317795"
           y="9.437705">Non-Equilibrium Working group</tspan><tspan
           sodipodi:role="line"
           style="font-style:normal;font-variant:normal;font-weight:normal;font-stretch:normal;font-size:5.64444px;font-family:'Segoe Script';-inkscape-font-specification:'Segoe Script';stroke-width:0.264583"
           x="50.317795"
           y="15.544338"
           id="tspan25631">at RIKEN iTHEMS</tspan></text>
    </clipPath>
    <clipPath
       clipPathUnits="userSpaceOnUse"
       id="clipPath26061">
      <text
         xml:space="preserve"
         style="font-style:normal;font-weight:normal;font-size:15.875px;line-height:1.25;font-family:sans-serif;display:inline;fill:#000000;fill-opacity:1;stroke:none;stroke-width:0.264583"
         x="7.353148"
         y="14.689141"
         id="text26065"
         transform="rotate(-60)"><tspan
           sodipodi:role="line"
           id="tspan26063"
           style="font-style:normal;font-variant:normal;font-weight:bold;font-stretch:normal;font-size:15.875px;font-family:'Tw Cen MT';-inkscape-font-specification:'Tw Cen MT Bold';stroke-width:0.264583"
           x="7.353148"
           y="14.689141">N E W</tspan></text>
    </clipPath>
  </defs>
  <g
     inkscape:groupmode="layer"
     id="layer1"
     inkscape:label="黒"
     style="display:none">
    <path
       id="rect96426"
       style="stroke-width:0.264583"
       d="M -0.59077787,-3.8400564 H 254.32989 V 40.76368 H -0.59077787 Z" />
  </g>
  <g
     inkscape:groupmode="layer"
     id="layer2"
     inkscape:label="黒 1"
     style="display:inline">
    <rect
       style="fill:#000000;stroke-width:0.264583"
       id="rect127648"
       width="98.469971"
       height="41.735161"
       x="-2.4685602"
       y="-1.2668712" />
  </g>
  <g
     inkscape:label="文字"
     inkscape:groupmode="layer"
     id="g24232"
     style="display:none">
    <text
       xml:space="preserve"
       style="font-size:4.40973px;line-height:0.95;font-family:sans-serif;stroke-width:0.264583"
       x="76.99836"
       y="13.126947"
       id="text9065"><tspan
         sodipodi:role="line"
         id="tspan9063"
         style="stroke-width:0.264583"
         x="76.99836"
         y="13.126947" /></text>
    <text
       xml:space="preserve"
       style="font-style:normal;font-variant:normal;font-weight:bold;font-stretch:normal;font-size:28.2222px;line-height:0.95;font-family:'Spica Neue Light';-inkscape-font-specification:'Spica Neue Light,  Bold';letter-spacing:2.91042px;fill:#ffffff;stroke-width:0.264583"
       x="8.8616657"
       y="23.335724"
       id="text42615"><tspan
         sodipodi:role="line"
         id="tspan42613"
         style="font-style:normal;font-variant:normal;font-weight:bold;font-stretch:normal;font-size:28.2222px;font-family:'Spica Neue Light';-inkscape-font-specification:'Spica Neue Light,  Bold';fill:#ffffff;stroke-width:0.264583"
         x="8.8616657"
         y="23.335724">Hidetoshi <tspan
   style="font-style:normal;font-variant:normal;font-weight:normal;font-stretch:normal;font-family:'Spica Neue Bold';-inkscape-font-specification:'Spica Neue Bold, '"
   id="tspan105602">TAYA</tspan></tspan></text>
  </g>
  <g
     inkscape:label="文字 コピー 1"
     inkscape:groupmode="layer"
     id="g108961"
     style="display:none">
    <text
       xml:space="preserve"
       style="font-size:4.40973px;line-height:0.95;font-family:sans-serif;stroke-width:0.264583"
       x="76.99836"
       y="13.126947"
       id="text108953"><tspan
         sodipodi:role="line"
         id="tspan108951"
         style="stroke-width:0.264583"
         x="76.99836"
         y="13.126947" /></text>
    <text
       xml:space="preserve"
       style="font-style:normal;font-variant:normal;font-weight:bold;font-stretch:normal;font-size:28.2222px;line-height:0.95;font-family:'Spica Neue Light';-inkscape-font-specification:'Spica Neue Light,  Bold';text-align:center;letter-spacing:2.91042px;text-anchor:middle;fill:#ffffff;stroke-width:0.264583"
       x="43.16893"
       y="8.8616638"
       id="text108959"><tspan
         sodipodi:role="line"
         style="font-style:normal;font-variant:normal;font-weight:bold;font-stretch:normal;font-size:9.87778px;font-family:'Spica Neue Light';-inkscape-font-specification:'Spica Neue Light,  Bold';text-align:center;letter-spacing:3.96875px;text-anchor:middle;fill:#ffffff;stroke-width:0.264583"
         x="43.16893"
         y="8.8616638"
         id="tspan116122">Hidetoshi</tspan><tspan
         sodipodi:role="line"
         style="font-style:normal;font-variant:normal;font-weight:normal;font-stretch:normal;font-size:28.2222px;font-family:'Spica Neue Bold';-inkscape-font-specification:'Spica Neue Bold, ';text-align:center;text-anchor:middle;fill:#ffffff;stroke-width:0.264583"
         x="44.624142"
         y="35.672752"
         id="tspan122115">TAYA</tspan></text>
  </g>
  <g
     inkscape:label="文字 コピー 1 コピー"
     inkscape:groupmode="layer"
     id="g122780"
     style="display:none">
    <text
       xml:space="preserve"
       style="font-size:4.40973px;line-height:0.95;font-family:sans-serif;stroke-width:0.264583"
       x="76.99836"
       y="13.126947"
       id="text122772"><tspan
         sodipodi:role="line"
         id="tspan122770"
         style="stroke-width:0.264583"
         x="76.99836"
         y="13.126947" /></text>
    <g
       aria-label="Hidetoshi TAYA"
       id="text122778"
       style="font-weight:bold;font-size:28.2222px;line-height:0.95;font-family:'Spica Neue Light';-inkscape-font-specification:'Spica Neue Light,  Bold';text-align:center;letter-spacing:2.91042px;text-anchor:middle;fill:#ffffff;stroke-width:0.264583"
       transform="translate(-5.5381119,1.4153335)">
      <path
         d="M 10.319252,8.8616638 H 9.8224694 V 5.3938299 H 5.7035123 V 8.8616638 H 5.2115526 V 1.8102408 H 5.7035123 V 4.9404553 H 9.8224694 V 1.8102408 h 0.4967826 z"
         style="font-size:9.87778px;letter-spacing:3.96875px"
         id="path126524" />
      <path
         d="m 16.641691,8.8616638 h -0.47749 V 3.6189163 h 0.47749 z M 16.096677,2.1623297 q 0,-0.463021 0.303858,-0.463021 0.149517,0 0.23151,0.1205784 0.08682,0.1205784 0.08682,0.3424426 0,0.217041 -0.08682,0.3424425 -0.08199,0.1254015 -0.23151,0.1254015 -0.303858,0 -0.303858,-0.467844 z"
         style="font-size:9.87778px;letter-spacing:3.96875px"
         id="path126526" />
      <path
         d="m 24.285671,3.5176305 q 0.56913,0 0.98392,0.2073948 0.414789,0.2073948 0.742762,0.7090008 h 0.02894 q -0.02894,-0.607715 -0.02894,-1.1913143 V 1.3568662 h 0.472668 V 8.8616638 H 26.171517 L 26.050938,8.0610235 h -0.03858 q -0.598068,0.897103 -1.717036,0.897103 -1.085205,0 -1.659158,-0.6752389 -0.573953,-0.6752388 -0.573953,-1.9678389 0,-1.360124 0.56913,-2.0787711 0.56913,-0.7186471 1.654335,-0.7186471 z m 0,0.4340821 q -0.858518,0 -1.2926,0.6028919 -0.429259,0.6028918 -0.429259,1.7507979 0,2.2282883 1.731505,2.2282883 0.887457,0 1.302247,-0.5160755 0.414789,-0.5160754 0.414789,-1.7025665 v -0.081993 q 0,-1.21543 -0.409966,-1.7459748 -0.405143,-0.535368 -1.316716,-0.5353683 z"
         style="font-size:9.87778px;letter-spacing:3.96875px;fill:#ffffff"
         id="path126528" />
      <path
         d="m 34.33157,8.9581265 q -1.143083,0 -1.78456,-0.7041777 -0.636654,-0.7041776 -0.636654,-1.9726621 0,-1.254015 0.617361,-2.006424 0.617362,-0.7572322 1.663982,-0.7572322 0.926042,0 1.46141,0.6463001 0.535368,0.6463 0.535368,1.755621 v 0.3858508 h -3.776515 q 0.0096,1.0803822 0.501606,1.6495121 0.496783,0.5691299 1.418002,0.5691299 0.448551,0 0.786171,-0.062701 0.342442,-0.062701 0.863341,-0.2700955 V 8.62533 q -0.443728,0.1929254 -0.819933,0.2604493 -0.376204,0.072347 -0.829579,0.072347 z M 34.191699,3.9420664 q -0.757232,0 -1.21543,0.501606 -0.458198,0.4967829 -0.535368,1.4372941 h 3.241147 q 0,-0.9115724 -0.395497,-1.4228247 -0.395498,-0.5160754 -1.094852,-0.5160754 z"
         style="font-size:9.87778px;letter-spacing:3.96875px"
         id="path126530" />
      <path
         d="m 42.882299,8.5336907 q 0.453375,0 0.790994,-0.07717 v 0.3858508 q -0.347265,0.1157552 -0.80064,0.1157552 -0.694531,0 -1.027328,-0.3713814 Q 41.517352,8.2153638 41.517352,7.4195465 V 4.0337059 H 40.740827 V 3.7539641 l 0.776525,-0.217041 0.241157,-1.1864912 h 0.24598 v 1.2684844 h 1.53858 v 0.4147896 h -1.53858 v 3.3183167 q 0,0.6028919 0.212218,0.89228 0.212218,0.2893881 0.665592,0.2893881 z"
         style="font-size:9.87778px;letter-spacing:3.96875px"
         id="path126532" />
      <path
         d="m 53.015012,6.2330554 q 0,1.2829538 -0.622185,2.006424 -0.622184,0.7186471 -1.717036,0.7186471 -0.689708,0 -1.21543,-0.3327963 Q 48.93464,8.2925339 48.654898,7.6703495 48.375156,7.0481652 48.375156,6.2330554 q 0,-1.2829539 0.622184,-1.9967778 0.622185,-0.7186471 1.70739,-0.7186471 1.080382,0 1.69292,0.7282934 0.617362,0.7234702 0.617362,1.9871315 z m -4.13825,0 q 0,1.0803822 0.472667,1.6880971 0.477491,0.6028919 1.345655,0.6028919 0.868164,0 1.340831,-0.6028919 0.477491,-0.6077149 0.477491,-1.6880971 0,-1.0852053 -0.482314,-1.683274 -0.47749,-0.5980688 -1.345654,-0.5980688 -0.868165,0 -1.340832,0.5980688 -0.467844,0.5932455 -0.467844,1.683274 z"
         style="font-size:9.87778px;letter-spacing:3.96875px"
         id="path126534" />
      <path
         d="m 61.686322,7.4967167 q 0,0.7041777 -0.535368,1.0852053 -0.535368,0.3762045 -1.519287,0.3762045 -1.051444,0 -1.668805,-0.32315 V 8.1189011 q 0.790994,0.395497 1.668805,0.395497 0.776524,0 1.176844,-0.2556261 0.405144,-0.2604493 0.405144,-0.6897083 0,-0.395497 -0.32315,-0.6655926 Q 60.572178,6.6333756 59.839061,6.3729263 59.05289,6.0883613 58.734563,5.8857897 58.416237,5.6783949 58.25225,5.4227687 58.093087,5.1623195 58.093087,4.7909381 q 0,-0.5884224 0.491959,-0.930865 0.496783,-0.3424426 1.38424,-0.3424426 0.848872,0 1.610927,0.3183269 l -0.178456,0.4340821 q -0.771702,-0.3183269 -1.432471,-0.3183269 -0.641477,0 -1.017681,0.212218 Q 58.5754,4.3761485 58.5754,4.752353 q 0,0.4099665 0.289388,0.6559463 0.294211,0.2459799 1.143083,0.5498374 0.709001,0.2556261 1.032151,0.4630209 0.32315,0.2025717 0.482313,0.463021 0.163987,0.2604492 0.163987,0.6125381 z"
         style="font-size:9.87778px;letter-spacing:3.96875px"
         id="path126536" />
      <path
         d="m 70.661484,8.8616638 v -3.40031 q 0,-0.7909941 -0.332796,-1.147906 -0.332797,-0.3617352 -1.032151,-0.3617352 -0.940511,0 -1.379417,0.4774904 -0.434082,0.4726672 -0.434082,1.53858 v 2.8938808 h -0.47749 V 1.3568662 h 0.47749 v 2.3874517 l -0.02411,0.6704157 h 0.03376 q 0.294212,-0.4726672 0.742763,-0.6848852 0.448552,-0.2122179 1.114144,-0.2122179 1.78456,0 1.78456,1.9147845 v 3.4292488 z"
         style="font-size:9.87778px;letter-spacing:3.96875px"
         id="path126538" />
      <path
         d="M 77.278136,8.8616638 H 76.800645 V 3.6189163 h 0.477491 z M 76.733121,2.1623297 q 0,-0.463021 0.303858,-0.463021 0.149517,0 0.23151,0.1205784 0.08682,0.1205784 0.08682,0.3424426 0,0.217041 -0.08682,0.3424425 -0.08199,0.1254015 -0.23151,0.1254015 -0.303858,0 -0.303858,-0.467844 z"
         style="font-size:9.87778px;letter-spacing:3.96875px"
         id="path126540" />
      <path
         d="M 15.342218,35.672754 H 11.070303 V 19.081187 H 5.5994955 V 15.525851 H 20.813025 v 3.555336 h -5.470807 z"
         style="font-weight:normal;font-family:'Spica Neue Bold';-inkscape-font-specification:'Spica Neue Bold, '"
         id="path126542" />
      <path
         d="M 37.186869,35.672754 35.72615,30.877185 h -7.344938 l -1.46072,4.795569 H 22.317848 L 29.42852,15.443169 h 5.222761 l 7.138232,20.229585 z m -2.480467,-8.378466 q -2.025714,-6.518116 -2.287541,-7.372499 -0.248047,-0.854383 -0.35829,-1.350476 -0.454752,1.763888 -2.60449,8.722975 z"
         style="font-weight:normal;font-family:'Spica Neue Bold';-inkscape-font-specification:'Spica Neue Bold, '"
         id="path126544" />
      <path
         d="m 51.810605,23.821635 4.203013,-8.295784 h 4.602644 l -6.68348,12.305872 v 7.841031 h -4.244354 v -7.703228 l -6.68348,-12.443675 h 4.630205 z"
         style="font-weight:normal;font-family:'Spica Neue Bold';-inkscape-font-specification:'Spica Neue Bold, '"
         id="path126546" />
      <path
         d="m 76.700716,35.672754 -1.460719,-4.795569 h -7.344938 l -1.460719,4.795569 h -4.602644 l 7.110671,-20.229585 h 5.222761 L 81.30336,35.672754 Z M 74.22025,27.294288 q -2.025715,-6.518116 -2.287542,-7.372499 -0.248047,-0.854383 -0.35829,-1.350476 -0.454752,1.763888 -2.60449,8.722975 z"
         style="font-weight:normal;font-family:'Spica Neue Bold';-inkscape-font-specification:'Spica Neue Bold, '"
         id="path126548" />
      <rect
         style="fill:#ffffff;stroke-width:0.0700042"
         id="rect126960"
         width="0.29538894"
         height="36.923618"
         x="91.275185"
         y="-0.29538894" />
    </g>
  </g>
  <g
     inkscape:label="文字 コピー 1 コピー コピー"
     inkscape:groupmode="layer"
     id="g127821"
     style="display:inline">
    <text
       xml:space="preserve"
       style="font-size:4.40973px;line-height:0.95;font-family:sans-serif;stroke-width:0.264583"
       x="76.99836"
       y="13.126947"
       id="text127789"><tspan
         sodipodi:role="line"
         id="tspan127787"
         style="stroke-width:0.264583"
         x="76.99836"
         y="13.126947" /></text>
    <g
       aria-label="Hidetoshi TAYA"
       id="g127819"
       style="font-weight:bold;font-size:28.2222px;line-height:0.95;font-family:'Spica Neue Light';-inkscape-font-specification:'Spica Neue Light,  Bold';text-align:center;letter-spacing:2.91042px;text-anchor:middle;fill:#ffffff;stroke-width:0.264583"
       transform="translate(0.96044508,3.4830562)">
      <path
         d="M 12.43592,8.8616638 H 11.939137 V 5.3938299 H 7.8201791 V 8.8616638 H 7.3282194 V 1.8102408 H 7.8201791 V 4.9404553 H 11.939137 V 1.8102408 h 0.496783 z"
         style="font-size:9.87778px;letter-spacing:3.96875px"
         id="path127791" />
      <path
         d="m 18.758359,8.8616638 h -0.47749 V 3.6189163 h 0.47749 z M 18.213345,2.1623297 q 0,-0.463021 0.303858,-0.463021 0.149517,0 0.23151,0.1205784 0.08682,0.1205784 0.08682,0.3424426 0,0.217041 -0.08682,0.3424425 -0.08199,0.1254015 -0.23151,0.1254015 -0.303858,0 -0.303858,-0.467844 z"
         style="font-size:9.87778px;letter-spacing:3.96875px"
         id="path127793" />
      <path
         d="m 26.402339,3.5176305 q 0.56913,0 0.98392,0.2073948 0.414789,0.2073948 0.742762,0.7090008 h 0.02894 q -0.02894,-0.607715 -0.02894,-1.1913143 V 1.3568662 h 0.472668 V 8.8616638 H 28.288185 L 28.167606,8.0610235 h -0.03858 q -0.598068,0.897103 -1.717036,0.897103 -1.085205,0 -1.659158,-0.6752389 -0.573953,-0.6752388 -0.573953,-1.9678389 0,-1.360124 0.56913,-2.0787711 0.56913,-0.7186471 1.654335,-0.7186471 z m 0,0.4340821 q -0.858518,0 -1.2926,0.6028919 -0.429259,0.6028918 -0.429259,1.7507979 0,2.2282883 1.731505,2.2282883 0.887457,0 1.302247,-0.5160755 0.414789,-0.5160754 0.414789,-1.7025665 v -0.081993 q 0,-1.21543 -0.409966,-1.7459748 -0.405143,-0.535368 -1.316716,-0.5353683 z"
         style="font-size:9.87778px;letter-spacing:3.96875px;fill:#ffffff"
         id="path127795" />
      <path
         d="m 36.448238,8.9581265 q -1.143083,0 -1.78456,-0.7041777 -0.636654,-0.7041776 -0.636654,-1.9726621 0,-1.254015 0.617361,-2.006424 0.617362,-0.7572322 1.663982,-0.7572322 0.926042,0 1.46141,0.6463001 0.535368,0.6463 0.535368,1.755621 V 6.3054024 H 34.52863 q 0.0096,1.0803822 0.501606,1.6495121 0.496783,0.5691299 1.418002,0.5691299 0.448551,0 0.786171,-0.062701 0.342442,-0.062701 0.863341,-0.2700955 V 8.62533 q -0.443728,0.1929254 -0.819933,0.2604493 -0.376204,0.072347 -0.829579,0.072347 z M 36.308367,3.9420664 q -0.757232,0 -1.21543,0.501606 -0.458198,0.4967829 -0.535368,1.4372941 h 3.241147 q 0,-0.9115724 -0.395497,-1.4228247 -0.395498,-0.5160754 -1.094852,-0.5160754 z"
         style="font-size:9.87778px;letter-spacing:3.96875px"
         id="path127797" />
      <path
         d="m 44.998967,8.5336907 q 0.453375,0 0.790994,-0.07717 v 0.3858508 q -0.347265,0.1157552 -0.80064,0.1157552 -0.694531,0 -1.027328,-0.3713814 Q 43.63402,8.2153638 43.63402,7.4195465 V 4.0337059 H 42.857495 V 3.7539641 l 0.776525,-0.217041 0.241157,-1.1864912 h 0.24598 v 1.2684844 h 1.53858 v 0.4147896 h -1.53858 v 3.3183167 q 0,0.6028919 0.212218,0.89228 0.212218,0.2893881 0.665592,0.2893881 z"
         style="font-size:9.87778px;letter-spacing:3.96875px"
         id="path127799" />
      <path
         d="m 55.13168,6.2330554 q 0,1.2829538 -0.622185,2.006424 -0.622184,0.7186471 -1.717036,0.7186471 -0.689708,0 -1.21543,-0.3327963 -0.525721,-0.3327963 -0.805463,-0.9549807 -0.279742,-0.6221843 -0.279742,-1.4372941 0,-1.2829539 0.622184,-1.9967778 0.622185,-0.7186471 1.70739,-0.7186471 1.080382,0 1.69292,0.7282934 0.617362,0.7234702 0.617362,1.9871315 z m -4.13825,0 q 0,1.0803822 0.472667,1.6880971 0.477491,0.6028919 1.345655,0.6028919 0.868164,0 1.340831,-0.6028919 0.477491,-0.6077149 0.477491,-1.6880971 0,-1.0852053 -0.482314,-1.683274 -0.47749,-0.5980688 -1.345654,-0.5980688 -0.868165,0 -1.340832,0.5980688 -0.467844,0.5932455 -0.467844,1.683274 z"
         style="font-size:9.87778px;letter-spacing:3.96875px"
         id="path127801" />
      <path
         d="m 63.80299,7.4967167 q 0,0.7041777 -0.535368,1.0852053 -0.535368,0.3762045 -1.519287,0.3762045 -1.051444,0 -1.668805,-0.32315 V 8.1189011 q 0.790994,0.395497 1.668805,0.395497 0.776524,0 1.176844,-0.2556261 0.405144,-0.2604493 0.405144,-0.6897083 0,-0.395497 -0.32315,-0.6655926 Q 62.688846,6.6333756 61.955729,6.3729263 61.169558,6.0883613 60.851231,5.8857897 60.532905,5.6783949 60.368918,5.4227687 60.209755,5.1623195 60.209755,4.7909381 q 0,-0.5884224 0.491959,-0.930865 0.496783,-0.3424426 1.38424,-0.3424426 0.848872,0 1.610927,0.3183269 l -0.178456,0.4340821 q -0.771702,-0.3183269 -1.432471,-0.3183269 -0.641477,0 -1.017681,0.212218 -0.376205,0.2122179 -0.376205,0.5884224 0,0.4099665 0.289388,0.6559463 0.294211,0.2459799 1.143083,0.5498374 0.709001,0.2556261 1.032151,0.4630209 0.32315,0.2025717 0.482313,0.463021 0.163987,0.2604492 0.163987,0.6125381 z"
         style="font-size:9.87778px;letter-spacing:3.96875px"
         id="path127803" />
      <path
         d="m 72.778152,8.8616638 v -3.40031 q 0,-0.7909941 -0.332796,-1.147906 -0.332797,-0.3617352 -1.032151,-0.3617352 -0.940511,0 -1.379417,0.4774904 -0.434082,0.4726672 -0.434082,1.53858 v 2.8938808 h -0.47749 V 1.3568662 h 0.47749 v 2.3874517 l -0.02411,0.6704157 h 0.03376 q 0.294212,-0.4726672 0.742763,-0.6848852 0.448552,-0.2122179 1.114144,-0.2122179 1.78456,0 1.78456,1.9147845 v 3.4292488 z"
         style="font-size:9.87778px;letter-spacing:3.96875px"
         id="path127805" />
      <path
         d="M 79.394804,8.8616638 H 78.917313 V 3.6189163 h 0.477491 z M 78.849789,2.1623297 q 0,-0.463021 0.303858,-0.463021 0.149517,0 0.23151,0.1205784 0.08682,0.1205784 0.08682,0.3424426 0,0.217041 -0.08682,0.3424425 -0.08199,0.1254015 -0.23151,0.1254015 -0.303858,0 -0.303858,-0.467844 z"
         style="font-size:9.87778px;letter-spacing:3.96875px"
         id="path127807" />
      <path
         d="M 15.342218,35.672754 H 11.070303 V 19.081187 H 5.5994955 V 15.525851 H 20.813025 v 3.555336 h -5.470807 z"
         style="font-weight:normal;font-family:'Spica Neue Bold';-inkscape-font-specification:'Spica Neue Bold, '"
         id="path127809" />
      <path
         d="M 37.186869,35.672754 35.72615,30.877185 h -7.344938 l -1.46072,4.795569 H 22.317848 L 29.42852,15.443169 h 5.222761 l 7.138232,20.229585 z m -2.480467,-8.378466 q -2.025714,-6.518116 -2.287541,-7.372499 -0.248047,-0.854383 -0.35829,-1.350476 -0.454752,1.763888 -2.60449,8.722975 z"
         style="font-weight:normal;font-family:'Spica Neue Bold';-inkscape-font-specification:'Spica Neue Bold, '"
         id="path127811" />
      <path
         d="m 51.810605,23.821635 4.203013,-8.295784 h 4.602644 l -6.68348,12.305872 v 7.841031 h -4.244354 v -7.703228 l -6.68348,-12.443675 h 4.630205 z"
         style="font-weight:normal;font-family:'Spica Neue Bold';-inkscape-font-specification:'Spica Neue Bold, '"
         id="path127813" />
      <path
         d="m 76.700716,35.672754 -1.460719,-4.795569 h -7.344938 l -1.460719,4.795569 h -4.602644 l 7.110671,-20.229585 h 5.222761 L 81.30336,35.672754 Z M 74.22025,27.294288 q -2.025715,-6.518116 -2.287542,-7.372499 -0.248047,-0.854383 -0.35829,-1.350476 -0.454752,1.763888 -2.60449,8.722975 z"
         style="font-weight:normal;font-family:'Spica Neue Bold';-inkscape-font-specification:'Spica Neue Bold, '"
         id="path127815" />
    </g>
  </g>
  <g
     inkscape:label="文字 コピー"
     inkscape:groupmode="layer"
     id="g61653"
     style="display:none">
    <text
       xml:space="preserve"
       style="font-size:4.40973px;line-height:0.95;font-family:sans-serif;stroke-width:0.264583"
       x="76.99836"
       y="13.126947"
       id="text61643"><tspan
         sodipodi:role="line"
         id="tspan61641"
         style="stroke-width:0.264583"
         x="76.99836"
         y="13.126947" /></text>
    <text
       xml:space="preserve"
       style="font-style:normal;font-variant:normal;font-weight:bold;font-stretch:normal;font-size:21.1667px;line-height:0.95;font-family:Constantia;-inkscape-font-specification:'Constantia Bold';letter-spacing:2.64583px;fill:#ffffff;stroke-width:0.264583"
       x="31.232834"
       y="18.967756"
       id="text61647"><tspan
         sodipodi:role="line"
         id="tspan61645"
         style="font-style:normal;font-variant:normal;font-weight:bold;font-stretch:normal;font-size:21.1667px;font-family:Constantia;-inkscape-font-specification:'Constantia Bold';fill:#ffffff;stroke-width:0.264583"
         x="31.232834"
         y="18.967756">Hidetoshi  Taya</tspan></text>
  </g>
</svg>
