<?xml version="1.0" encoding="UTF-8" standalone="no"?>
<!-- Created with Inkscape (http://www.inkscape.org/) -->

<svg
   width="150"
   height="150"
   viewBox="0 0 39.687499 39.687499"
   version="1.1"
   id="svg5"
   inkscape:version="1.1 (c68e22c387, 2021-05-23)"
   sodipodi:docname="navi1.svg"
   xmlns:inkscape="http://www.inkscape.org/namespaces/inkscape"
   xmlns:sodipodi="http://sodipodi.sourceforge.net/DTD/sodipodi-0.dtd"
   xmlns="http://www.w3.org/2000/svg"
   xmlns:svg="http://www.w3.org/2000/svg">
  <sodipodi:namedview
     id="namedview7"
     pagecolor="#ffffff"
     bordercolor="#666666"
     borderopacity="1.0"
     inkscape:pageshadow="2"
     inkscape:pageopacity="0.0"
     inkscape:pagecheckerboard="0"
     inkscape:document-units="mm"
     showgrid="false"
     units="px"
     inkscape:zoom="2.7115869"
     inkscape:cx="123.91268"
     inkscape:cy="167.98281"
     inkscape:window-width="1816"
     inkscape:window-height="1334"
     inkscape:window-x="264"
     inkscape:window-y="18"
     inkscape:window-maximized="0"
     inkscape:current-layer="g2122"
     width="240px">
    <inkscape:grid
       type="xygrid"
       id="grid40935" />
  </sodipodi:namedview>
  <defs
     id="defs2">
    <filter
       inkscape:collect="always"
       style="color-interpolation-filters:sRGB"
       id="filter3804"
       x="-0.30672815"
       y="-0.76261863"
       width="1.6134563"
       height="2.5252373">
      <feGaussianBlur
         inkscape:collect="always"
         stdDeviation="4.5267654"
         id="feGaussianBlur3806" />
    </filter>
  </defs>
  <rect
     style="fill:none;stroke-width:0.264583"
     id="rect243"
     width="91.888626"
     height="27.233517"
     x="-2.9388688"
     y="-1.7633213" />
  <g
     inkscape:groupmode="layer"
     id="layer1"
     inkscape:label="黒"
     style="display:inline">
    <rect
       style="fill:#000000;stroke-width:0.264583"
       id="rect204"
       width="40.103363"
       height="40.005787"
       x="0"
       y="0" />
  </g>
  <g
     inkscape:groupmode="layer"
     id="g2122"
     inkscape:label="光"
     style="display:inline;opacity:0.743265;filter:url(#filter3804)">
    <ellipse
       style="fill:#808080;stroke-width:0.18711"
       id="path3780"
       cx="19.661379"
       cy="42.786674"
       rx="13.611725"
       ry="4.6348166" />
  </g>
  <g
     inkscape:groupmode="layer"
     id="layer4"
     inkscape:label="白線2"
     style="display:none;opacity:0.228">
    <rect
       style="fill:#ffffff;stroke-width:0.264583"
       id="rect653"
       width="40.883961"
       height="0.097575091"
       x="-1.6587768"
       y="39.420338" />
  </g>
  <g
     inkscape:groupmode="layer"
     id="layer2"
     inkscape:label="白線"
     style="display:none;opacity:0.494453">
    <rect
       style="fill:#ffffff;stroke-width:0.264583"
       id="rect331"
       width="0.097575091"
       height="16.29504"
       x="39.127609"
       y="23.222872" />
  </g>
  <g
     inkscape:groupmode="layer"
     id="g867"
     inkscape:label="白線 コピー"
     style="display:inline;opacity:0.259905">
    <rect
       style="fill:#ffffff;stroke-width:0.264583"
       id="rect865"
       width="0.097575091"
       height="16.29504"
       x="0.52916664"
       y="23.710745" />
  </g>
  <g
     inkscape:groupmode="layer"
     id="g2476"
     inkscape:label="home"
     style="display:inline">
    <g
       aria-label="HOME"
       id="text2474"
       style="font-size:3.52778px;line-height:1.05;font-family:'Spica Neue Light';-inkscape-font-specification:'Spica Neue Light, ';opacity:0.99;fill:#ffffff;stroke-width:0.264583"
       transform="translate(-11.31871,32.492504)">
      <path
         d="M 28.623599,5.4642053 H 28.446176 V 4.2256926 H 26.97512 v 1.2385127 h -0.1757 V 2.9458388 h 0.1757 V 4.063773 h 1.471056 V 2.9458388 h 0.177423 z"
         id="path786"
         style="fill:#ffffff" />
      <path
         d="m 31.453747,4.201577 q 0,0.599447 -0.299724,0.9491244 -0.299723,0.3479548 -0.826823,0.3479548 -0.525378,0 -0.825101,-0.3479548 -0.299724,-0.3496774 -0.299724,-0.9525695 0,-0.6011696 0.301446,-0.9456794 0.303169,-0.3462323 0.826824,-0.3462323 0.5271,0 0.825101,0.3479549 0.298001,0.3462323 0.298001,0.9474019 z m -2.060169,0 q 0,0.5408803 0.241157,0.8371587 0.241157,0.2945559 0.692465,0.2945559 0.454753,0 0.694187,-0.2928334 0.241157,-0.2928333 0.241157,-0.8388812 0,-0.5443255 -0.241157,-0.8337137 -0.239434,-0.2911107 -0.690742,-0.2911107 -0.449586,0 -0.694187,0.2928333 -0.24288,0.2928333 -0.24288,0.8319911 z"
         id="path788"
         style="fill:#ffffff" />
      <path
         d="m 33.140122,5.4642053 -0.938789,-2.325441 h -0.01378 q 0.01378,0.2135961 0.01378,0.4375274 v 1.8879136 h -0.16881 V 2.9458388 h 0.272163 l 0.89228,2.2151979 h 0.01033 l 0.892281,-2.2151979 h 0.265272 V 5.4642053 H 34.187432 V 3.5556211 q 0,-0.1998156 0.02067,-0.4134117 h -0.01378 l -0.942235,2.3219959 z"
         id="path790"
         style="fill:#ffffff" />
      <path
         d="M 36.452583,5.4642053 H 35.076267 V 2.9458388 h 1.376316 v 0.1619196 h -1.200616 v 0.9525695 h 1.133437 v 0.1619196 h -1.133437 v 1.0800382 h 1.200616 z"
         id="path792"
         style="fill:#ffffff" />
    </g>
  </g>
  <g
     inkscape:groupmode="layer"
     id="layer3"
     inkscape:label="基準線"
     style="display:none">
    <rect
       style="fill:#ff0000;stroke-width:0.264583"
       id="rect488"
       width="51.324493"
       height="0.097575091"
       x="-3.5127032"
       y="35.322182" />
    <rect
       style="fill:#ff0000;stroke-width:0.264583"
       id="rect490"
       width="0.19515018"
       height="61.277153"
       x="20.295618"
       y="-4.3908787" />
  </g>
</svg>
